<?xml version="1.0" encoding="UTF-8"?>
<svg xmlns="http://www.w3.org/2000/svg" xmlns:xlink="http://www.w3.org/1999/xlink" width="170px" height="128px" viewBox="0 0 169 128" version="1.1">
<defs>
<clipPath id="clip1">
  <path d="M 41.3125 55.300781 L 127.5 55.300781 L 127.5 72.777344 L 41.3125 72.777344 Z M 41.3125 55.300781 "/>
</clipPath>
</defs>
<g id="surface1">
<path style=" stroke:none;fill-rule:nonzero;fill:rgb(100%,100%,100%);fill-opacity:1;" d="M 0.679688 0 L 168.320312 0 L 168.320312 128 L 0.679688 128 Z M 0.679688 0 "/>
<g clip-path="url(#clip1)" clip-rule="nonzero">
<path style=" stroke:none;fill-rule:nonzero;fill:rgb(3.529412%,41.568627%,18.039216%);fill-opacity:1;" d="M 41.324219 56.8125 L 51.1875 56.8125 L 51.1875 58.789062 L 47.394531 58.789062 L 47.394531 69.398438 L 45.128906 69.398438 L 45.128906 58.789062 L 41.324219 58.789062 Z M 57.855469 60.035156 L 57.480469 61.878906 C 57.296875 61.828125 57.054688 61.761719 56.742188 61.6875 C 56.417969 61.621094 56.050781 61.585938 55.644531 61.585938 C 55.402344 61.585938 55.148438 61.621094 54.882812 61.65625 C 54.617188 61.71875 54.421875 61.746094 54.3125 61.789062 L 54.3125 69.398438 L 52.15625 69.398438 L 52.15625 60.363281 C 52.574219 60.199219 53.09375 60.039062 53.722656 59.914062 C 54.347656 59.777344 55.042969 59.699219 55.808594 59.699219 C 55.949219 59.699219 56.109375 59.710938 56.296875 59.722656 C 56.488281 59.746094 56.6875 59.777344 56.863281 59.800781 C 57.0625 59.828125 57.242188 59.867188 57.429688 59.914062 C 57.597656 59.960938 57.75 59.984375 57.855469 60.035156 Z M 61.527344 59.898438 L 61.527344 69.398438 L 59.367188 69.398438 L 59.367188 59.898438 Z M 61.765625 57.121094 C 61.765625 57.535156 61.632812 57.863281 61.367188 58.101562 C 61.109375 58.347656 60.800781 58.464844 60.445312 58.464844 C 60.078125 58.464844 59.757812 58.347656 59.5 58.101562 C 59.230469 57.863281 59.105469 57.535156 59.105469 57.121094 C 59.105469 56.699219 59.230469 56.363281 59.5 56.121094 C 59.757812 55.878906 60.078125 55.761719 60.445312 55.761719 C 60.800781 55.761719 61.109375 55.878906 61.367188 56.121094 C 61.632812 56.363281 61.765625 56.699219 61.765625 57.121094 Z M 70.472656 64.699219 C 70.472656 63.71875 70.257812 62.960938 69.824219 62.414062 C 69.386719 61.863281 68.6875 61.585938 67.71875 61.585938 C 67.519531 61.585938 67.316406 61.601562 67.09375 61.621094 C 66.875 61.636719 66.648438 61.671875 66.433594 61.738281 L 66.433594 67.171875 C 66.625 67.300781 66.890625 67.417969 67.199219 67.539062 C 67.507812 67.65625 67.847656 67.71875 68.199219 67.71875 C 68.984375 67.71875 69.566406 67.449219 69.929688 66.898438 C 70.285156 66.363281 70.472656 65.621094 70.472656 64.699219 Z M 72.683594 64.65625 C 72.683594 65.394531 72.597656 66.050781 72.414062 66.65625 C 72.226562 67.277344 71.960938 67.789062 71.621094 68.222656 C 71.277344 68.65625 70.835938 69 70.320312 69.238281 C 69.804688 69.484375 69.214844 69.605469 68.554688 69.605469 C 68.125 69.605469 67.71875 69.550781 67.339844 69.449219 C 66.980469 69.34375 66.679688 69.21875 66.433594 69.082031 L 66.433594 72.777344 L 64.277344 72.777344 L 64.277344 60.210938 C 64.714844 60.085938 65.265625 59.980469 65.898438 59.867188 C 66.542969 59.761719 67.230469 59.699219 67.933594 59.699219 C 68.675781 59.699219 69.332031 59.8125 69.925781 60.039062 C 70.503906 60.277344 70.992188 60.605469 71.414062 61.035156 C 71.824219 61.464844 72.132812 61.984375 72.359375 62.601562 C 72.570312 63.210938 72.683594 63.898438 72.683594 64.65625 Z M 74.3125 66.066406 C 74.3125 65.601562 74.375 65.1875 74.515625 64.800781 C 74.660156 64.433594 74.839844 64.101562 75.074219 63.789062 C 75.304688 63.484375 75.566406 63.21875 75.871094 62.984375 C 76.183594 62.761719 76.492188 62.550781 76.828125 62.367188 C 76.472656 61.984375 76.183594 61.582031 75.964844 61.136719 C 75.742188 60.699219 75.632812 60.238281 75.632812 59.761719 C 75.632812 58.738281 75.933594 57.949219 76.546875 57.367188 C 77.167969 56.800781 77.96875 56.519531 78.976562 56.519531 C 79.484375 56.519531 79.941406 56.601562 80.335938 56.738281 C 80.730469 56.878906 81.066406 57.085938 81.316406 57.34375 C 81.589844 57.601562 81.789062 57.894531 81.925781 58.238281 C 82.0625 58.585938 82.128906 58.949219 82.128906 59.34375 C 82.128906 59.722656 82.0625 60.085938 81.945312 60.417969 C 81.8125 60.777344 81.644531 61.082031 81.433594 61.363281 C 81.21875 61.652344 80.964844 61.914062 80.695312 62.136719 C 80.40625 62.378906 80.113281 62.585938 79.789062 62.777344 L 82.234375 65.28125 C 82.40625 64.964844 82.535156 64.605469 82.648438 64.21875 C 82.753906 63.828125 82.835938 63.433594 82.898438 63.066406 L 84.703125 63.300781 C 84.636719 63.78125 84.519531 64.3125 84.328125 64.898438 C 84.132812 65.5 83.886719 66.050781 83.574219 66.585938 C 83.972656 67.035156 84.347656 67.5 84.71875 67.980469 C 85.070312 68.460938 85.375 68.933594 85.617188 69.398438 L 83.363281 69.398438 C 83.246094 69.199219 83.09375 68.980469 82.910156 68.738281 C 82.71875 68.484375 82.523438 68.277344 82.335938 68.066406 C 81.839844 68.515625 81.28125 68.867188 80.644531 69.152344 C 80.011719 69.433594 79.304688 69.566406 78.511719 69.566406 C 77.707031 69.566406 77.039062 69.460938 76.496094 69.238281 C 75.964844 69.019531 75.539062 68.746094 75.210938 68.398438 C 74.882812 68.066406 74.660156 67.699219 74.515625 67.28125 C 74.375 66.867188 74.3125 66.464844 74.3125 66.066406 Z M 76.378906 65.914062 C 76.378906 66.121094 76.421875 66.34375 76.496094 66.550781 C 76.578125 66.777344 76.695312 66.980469 76.871094 67.15625 C 77.046875 67.347656 77.277344 67.5 77.554688 67.632812 C 77.832031 67.746094 78.167969 67.800781 78.5625 67.800781 C 79.101562 67.800781 79.585938 67.71875 80.011719 67.550781 C 80.453125 67.378906 80.820312 67.136719 81.128906 66.828125 L 77.984375 63.582031 C 77.8125 63.671875 77.628906 63.78125 77.4375 63.914062 C 77.242188 64.050781 77.074219 64.210938 76.921875 64.398438 C 76.761719 64.585938 76.628906 64.800781 76.539062 65.050781 C 76.425781 65.300781 76.378906 65.585938 76.378906 65.914062 Z M 80.257812 59.417969 C 80.257812 59.082031 80.144531 58.777344 79.917969 58.519531 C 79.695312 58.28125 79.355469 58.152344 78.9375 58.152344 C 78.476562 58.152344 78.136719 58.289062 77.898438 58.582031 C 77.660156 58.847656 77.542969 59.210938 77.542969 59.632812 C 77.542969 59.980469 77.640625 60.328125 77.828125 60.671875 C 78.015625 61.019531 78.289062 61.347656 78.621094 61.65625 C 78.84375 61.539062 79.046875 61.414062 79.25 61.261719 C 79.441406 61.121094 79.613281 60.960938 79.765625 60.777344 C 79.917969 60.585938 80.03125 60.394531 80.121094 60.171875 C 80.210938 59.960938 80.257812 59.710938 80.257812 59.417969 Z M 92.730469 69.6875 C 91.808594 69.6875 90.976562 69.535156 90.226562 69.238281 C 89.5 68.960938 88.871094 68.519531 88.359375 67.960938 C 87.847656 67.398438 87.449219 66.710938 87.1875 65.898438 C 86.902344 65.085938 86.773438 64.152344 86.773438 63.101562 C 86.773438 62.039062 86.921875 61.105469 87.246094 60.300781 C 87.5625 59.484375 87.992188 58.800781 88.542969 58.238281 C 89.082031 57.671875 89.730469 57.253906 90.46875 56.960938 C 91.207031 56.65625 91.996094 56.519531 92.839844 56.519531 C 93.359375 56.519531 93.8125 56.550781 94.238281 56.636719 C 94.652344 56.71875 95.011719 56.800781 95.320312 56.898438 C 95.632812 57 95.886719 57.101562 96.09375 57.210938 C 96.296875 57.3125 96.433594 57.398438 96.519531 57.449219 L 95.855469 59.3125 C 95.574219 59.136719 95.167969 58.964844 94.636719 58.800781 C 94.109375 58.636719 93.527344 58.550781 92.917969 58.550781 C 92.382812 58.550781 91.875 58.652344 91.410156 58.84375 C 90.949219 59.019531 90.546875 59.300781 90.207031 59.6875 C 89.867188 60.050781 89.609375 60.535156 89.414062 61.101562 C 89.222656 61.671875 89.125 62.328125 89.125 63.085938 C 89.125 63.746094 89.203125 64.363281 89.355469 64.914062 C 89.5 65.480469 89.730469 65.960938 90.039062 66.363281 C 90.351562 66.777344 90.734375 67.085938 91.21875 67.300781 C 91.691406 67.535156 92.265625 67.636719 92.929688 67.636719 C 93.726562 67.636719 94.375 67.566406 94.882812 67.394531 C 95.371094 67.238281 95.761719 67.082031 96.039062 66.933594 L 96.640625 68.800781 C 96.5 68.898438 96.3125 69 96.058594 69.101562 C 95.8125 69.199219 95.539062 69.289062 95.199219 69.378906 C 94.871094 69.464844 94.492188 69.539062 94.078125 69.601562 C 93.65625 69.652344 93.210938 69.6875 92.730469 69.6875 Z M 106.730469 64.636719 C 106.730469 65.394531 106.621094 66.082031 106.414062 66.699219 C 106.195312 67.3125 105.894531 67.847656 105.5 68.28125 C 105.113281 68.71875 104.640625 69.050781 104.082031 69.289062 C 103.527344 69.539062 102.921875 69.65625 102.242188 69.65625 C 101.578125 69.65625 100.976562 69.539062 100.429688 69.289062 C 99.882812 69.050781 99.414062 68.71875 99.023438 68.28125 C 98.628906 67.847656 98.316406 67.3125 98.097656 66.699219 C 97.875 66.082031 97.769531 65.394531 97.769531 64.636719 C 97.769531 63.894531 97.875 63.210938 98.097656 62.601562 C 98.316406 61.984375 98.628906 61.464844 99.023438 61.035156 C 99.417969 60.585938 99.902344 60.253906 100.449219 60.019531 C 100.988281 59.78125 101.59375 59.65625 102.242188 59.65625 C 102.898438 59.65625 103.511719 59.78125 104.0625 60.019531 C 104.613281 60.253906 105.09375 60.585938 105.488281 61.035156 C 105.867188 61.464844 106.183594 61.984375 106.398438 62.601562 C 106.621094 63.210938 106.730469 63.894531 106.730469 64.636719 Z M 104.523438 64.636719 C 104.523438 63.699219 104.320312 62.949219 103.921875 62.398438 C 103.527344 61.847656 102.964844 61.582031 102.242188 61.582031 C 101.539062 61.582031 100.976562 61.847656 100.582031 62.398438 C 100.1875 62.949219 99.976562 63.699219 99.976562 64.636719 C 99.976562 65.601562 100.1875 66.363281 100.582031 66.914062 C 100.976562 67.480469 101.539062 67.746094 102.242188 67.746094 C 102.964844 67.746094 103.527344 67.480469 103.921875 66.914062 C 104.320312 66.363281 104.523438 65.601562 104.523438 64.636719 Z M 110.664062 64.632812 C 110.664062 65.601562 110.886719 66.363281 111.332031 66.898438 C 111.785156 67.460938 112.410156 67.738281 113.203125 67.738281 C 113.546875 67.738281 113.851562 67.71875 114.09375 67.6875 C 114.335938 67.65625 114.539062 67.632812 114.6875 67.585938 L 114.6875 62.136719 C 114.5 62 114.246094 61.878906 113.9375 61.761719 C 113.613281 61.652344 113.28125 61.585938 112.925781 61.585938 C 112.140625 61.585938 111.5625 61.863281 111.195312 62.414062 C 110.835938 62.960938 110.664062 63.699219 110.664062 64.632812 Z M 116.851562 55.300781 L 116.851562 69.121094 C 116.425781 69.253906 115.894531 69.367188 115.238281 69.480469 C 114.585938 69.585938 113.902344 69.636719 113.191406 69.636719 C 112.449219 69.636719 111.785156 69.535156 111.210938 69.289062 C 110.625 69.066406 110.132812 68.738281 109.71875 68.300781 C 109.304688 67.878906 108.996094 67.363281 108.773438 66.738281 C 108.554688 66.132812 108.4375 65.449219 108.4375 64.6875 C 108.4375 63.933594 108.535156 63.253906 108.722656 62.632812 C 108.898438 62.019531 109.167969 61.5 109.535156 61.066406 C 109.890625 60.632812 110.316406 60.289062 110.835938 60.050781 C 111.347656 59.8125 111.9375 59.699219 112.601562 59.699219 C 113.050781 59.699219 113.457031 59.761719 113.796875 59.867188 C 114.140625 59.980469 114.441406 60.101562 114.6875 60.222656 L 114.6875 55.65625 Z M 119.085938 64.699219 C 119.085938 63.863281 119.203125 63.132812 119.457031 62.5 C 119.6875 61.867188 120.023438 61.347656 120.417969 60.917969 C 120.828125 60.515625 121.289062 60.199219 121.8125 59.980469 C 122.34375 59.777344 122.875 59.65625 123.421875 59.65625 C 124.703125 59.65625 125.714844 60.066406 126.425781 60.878906 C 127.144531 61.699219 127.5 62.898438 127.5 64.519531 C 127.5 64.636719 127.5 64.777344 127.5 64.917969 C 127.496094 65.082031 127.480469 65.21875 127.472656 65.34375 L 121.3125 65.34375 C 121.378906 66.101562 121.640625 66.6875 122.113281 67.105469 C 122.574219 67.519531 123.265625 67.738281 124.15625 67.738281 C 124.683594 67.738281 125.148438 67.6875 125.59375 67.585938 C 126.023438 67.484375 126.367188 67.394531 126.613281 67.28125 L 126.902344 69.082031 C 126.78125 69.136719 126.625 69.210938 126.40625 69.277344 C 126.207031 69.34375 125.972656 69.398438 125.699219 69.460938 C 125.429688 69.515625 125.140625 69.550781 124.832031 69.585938 C 124.519531 69.621094 124.210938 69.636719 123.886719 69.636719 C 123.058594 69.636719 122.351562 69.519531 121.738281 69.277344 C 121.140625 69.019531 120.632812 68.671875 120.25 68.222656 C 119.855469 67.789062 119.558594 67.277344 119.371094 66.671875 C 119.171875 66.082031 119.085938 65.414062 119.085938 64.699219 Z M 121.332031 63.71875 L 125.347656 63.71875 C 125.347656 63.414062 125.304688 63.132812 125.230469 62.847656 C 125.140625 62.582031 125.019531 62.347656 124.859375 62.136719 C 124.703125 61.949219 124.5 61.78125 124.273438 61.671875 C 124.039062 61.550781 123.757812 61.5 123.433594 61.5 C 123.105469 61.5 122.8125 61.566406 122.566406 61.6875 C 122.320312 61.8125 122.101562 61.984375 121.929688 62.199219 C 121.757812 62.398438 121.621094 62.632812 121.519531 62.898438 C 121.429688 63.15625 121.363281 63.433594 121.332031 63.71875 Z M 121.332031 63.71875 "/>
</g>
<path style="fill-rule:nonzero;fill:rgb(3.529412%,41.568627%,18.039216%);fill-opacity:1;stroke-width:1;stroke-linecap:butt;stroke-linejoin:miter;stroke:rgb(100%,100%,100%);stroke-opacity:1;stroke-miterlimit:4;" d="M 117.38958 87.768188 C 163.42737 47.585922 232.085268 47.585922 278.123058 87.768188 L 273.747474 87.768188 C 229.83655 50.741312 165.66501 50.741312 121.765164 87.768188 L 117.38958 87.768188 M 117.38958 159.417314 C 163.42737 199.621342 232.085268 199.621342 278.123058 159.417314 L 273.747474 159.417314 C 229.83655 196.44419 165.66501 196.44419 121.765164 159.417314 L 117.38958 159.417314 " transform="matrix(0.352632,0,0,0.359009,14.678955,19.662336)"/>
</g>
</svg>
